<?xml version="1.0" encoding="utf-8"?>
<!-- Generator: Adobe Illustrator 21.0.0, SVG Export Plug-In . SVG Version: 6.00 Build 0)  -->
<svg version="1.1" id="Capa_1" xmlns="http://www.w3.org/2000/svg" xmlns:xlink="http://www.w3.org/1999/xlink" x="0px" y="0px"
	 viewBox="0 0 112.2 112.2" style="enable-background:new 0 0 112.2 112.2;" xml:space="preserve">
<style type="text/css">
	.st0{fill:#4176FA;}
</style>
<g>
	<path class="st0" d="M56.1,0C25.1,0,0,25.1,0,56.1c0,31,25.1,56.1,56.1,56.1c31,0,56.1-25.1,56.1-56.1C112.2,25.1,87.1,0,56.1,0z
		 M67.1,38.1h17.4v5.2H67.1V38.1z M58.3,65.4c0,12.9-13.4,12.5-13.4,12.5h-22V35.6h22c6.7,0,11.9,3.7,11.9,11.2c0,7.6-6.4,8-6.4,8
		C58.9,54.9,58.3,65.4,58.3,65.4z M90.9,64.7H69c0,7.8,7.4,7.3,7.4,7.3c7,0,6.8-4.5,6.8-4.5h7.4c0,12.1-14.5,11.2-14.5,11.2
		C58.9,78.7,60,62.6,60,62.6c0-0.1,0-16.2,16.2-16.2C93.3,46.3,90.9,64.7,90.9,64.7z"/>
	<path class="st0" d="M47.9,47.5c0-4.4-3-4.4-3-4.4H32.6v9.4h11.5C46.1,52.5,47.9,51.9,47.9,47.5z"/>
	<path class="st0" d="M44.9,59H32.6v11.3h11.7c1.7,0,5.1-0.6,5.1-5.5C49.4,59,44.9,59,44.9,59z"/>
	<path class="st0" d="M76.4,52.5C69.9,52.5,69,59,69,59h13.9C82.8,59,82.9,52.5,76.4,52.5z"/>
</g>
</svg>
