<?xml version="1.0" ?><svg id="Layer_1" style="enable-background:new 0 0 242.9 242.9;" version="1.1" viewBox="0 0 242.9 242.9" xml:space="preserve" xmlns="http://www.w3.org/2000/svg" xmlns:xlink="http://www.w3.org/1999/xlink"><style type="text/css">
	.st0{fill:#F57E22;}
</style><path class="st0" d="M112.3,114.6l2.9,18.6h-12.7l3.3-18.5c0.9-5.2,2.2-14.4,3.2-20.4h0.4C110.1,100.3,111.3,109.2,112.3,114.6z   M242.9,42v159c0,23.2-18.8,42-42,42H42c-23.2,0-42-18.8-42-42V42C0,18.8,18.8,0,42,0h159C224.1,0,242.9,18.8,242.9,42z   M137.4,167.1L120.1,78H99.3L80,167.1h16.8l4-20.4h16l3.8,20.4H137.4z M162.9,102.4h-17.3v64.7h17.3V102.4z M162.9,85.2  c0-5.8-3.8-9.4-8.9-9.4c-4.8,0-9,3.6-8.9,9.4c-0.1,5.6,3.8,9.4,8.6,9.4C159.1,94.6,163,90.8,162.9,85.2z"/></svg>