<?xml version="1.0" ?><svg id="Layer_1" style="enable-background:new 0 0 242.9 242.9;" version="1.1" viewBox="0 0 242.9 242.9" xml:space="preserve" xmlns="http://www.w3.org/2000/svg" xmlns:xlink="http://www.w3.org/1999/xlink"><style type="text/css">
	.st0{fill:#EE458C;}
</style><path class="st0" d="M142.8,123.4c0.1,1.3,0.1,2.6,0.1,3.8v17.1c0,1.6-0.1,3-0.5,4c-1.3,4.5-3.8,5.7-5.9,5.7  c-4.9,0-8.2-6.5-8.2-18.8c0-10.4,2.2-19.3,8.3-19.3C140,115.8,142.1,119.4,142.8,123.4z M243.2,42.3v159c0,23.2-18.8,42-42,42h-159  c-23.2,0-42-18.8-42-42v-159c0-23.2,18.8-42,42-42h159C224.4,0.3,243.2,19.1,243.2,42.3z M100.1,77.9H82.8V167h17.3V77.9z   M160.8,167c-0.3-5.9-0.5-13-0.5-19.2V75.5h-17.3v32.3h-0.3c-1.6-3.7-5.2-6.5-10.8-6.5c-11,0-20.8,11-20.8,33.5  c0,18.1,6.3,33.3,20.1,33.3c5.9,0,11.1-3.8,13.5-8.3h0.3l0.9,7.3H160.8z"/></svg>