<?xml version="1.0" encoding="utf-8"?>
<!-- Generator: Adobe Illustrator 21.0.0, SVG Export Plug-In . SVG Version: 6.00 Build 0)  -->
<svg version="1.1" id="Camada_1" xmlns="http://www.w3.org/2000/svg" xmlns:xlink="http://www.w3.org/1999/xlink" x="0px" y="0px"
	 viewBox="0 0 800 800" style="enable-background:new 0 0 800 800;" xml:space="preserve">
<style type="text/css">
	.st0{fill:url(#SVGID_1_);}
</style>
<g>
	<linearGradient id="SVGID_1_" gradientUnits="userSpaceOnUse" x1="23.3027" y1="400" x2="780.3672" y2="400">
		<stop  offset="0" style="stop-color:#D87093"/>
		<stop  offset="1" style="stop-color:#0077FF"/>
	</linearGradient>
	<path class="st0" d="M717,193c-40.4-59.7-96.8-106-163.1-133.9C508.5,40,460.3,30.3,410.7,30.3h-34v0.4
		c-44.1,1.9-87,11.5-127.6,28.7c-44,18.6-83.6,45.3-117.5,79.2S71,212.1,52.4,256.1c-19.3,45.6-29.1,94-29.1,143.9
		c0,49.9,9.8,98.3,29.1,143.9c18.6,44,45.3,83.6,79.2,117.5s73.5,60.6,117.5,79.2c40.6,17.2,83.5,26.8,127.6,28.7v0.4h34
		c49.9,0,98.3-9.8,143.9-29.1c44-18.6,83.6-45.3,117.5-79.2s60.6-73.5,79.2-117.5c19.3-45.6,29.1-94,29.1-143.9
		C780.4,325.8,758.5,254.2,717,193z M376.7,98.7V366H93.2C109.6,220.9,229.2,106.7,376.7,98.7z M93.2,434h283.4v267.3
		C229.2,693.3,109.6,579.1,93.2,434z M444.7,699.8V100.2c28.5,3.2,56.3,10.4,82.9,21.6C639.8,169,712.4,278.2,712.4,400
		C712.4,554.9,595.1,682.8,444.7,699.8z"/>
</g>
</svg>
