<?xml version="1.0" ?><svg id="Layer_1" style="enable-background:new 0 0 242.9 242.9;" version="1.1" viewBox="0 0 242.9 242.9" xml:space="preserve" xmlns="http://www.w3.org/2000/svg" xmlns:xlink="http://www.w3.org/1999/xlink"><style type="text/css">
	.st0{fill:#00B5DC;}
</style><path class="st0" d="M108.8,104.2c0,8.3-4,14.5-12.7,14.5c-1.1,0-2,0-2.8-0.3V91c1.1-0.4,2.6-0.7,4.2-0.7  C105.7,90.3,108.8,96.4,108.8,104.2z M242.9,42v159c0,23.2-18.8,42-42,42H42c-23.2,0-42-18.8-42-42V42C0,18.8,18.8,0,42,0h159  C224.1,0,242.9,18.8,242.9,42z M126,102.7c0-7.5-2.4-14.9-7.7-19.6c-5.8-5.4-13.9-6.9-24.2-6.9C87.5,76.3,80.9,77,76,78v87.8h17.3  v-33.2c1.1,0,2.2,0,3.4,0c7.1,0,16.1-2.6,21.7-8.5C123.1,119.1,126,112.4,126,102.7z M166.9,146.2c0-7.4-3.6-14.1-13.1-19.6  c-6.1-3.6-7.5-5.2-7.5-8.1c0-2.9,2.1-5.6,6.5-5.6c3.4,0,6.5,1.2,9,2.6l3-12.7c-3.4-1.6-7.7-2.9-13.1-2.9c-13,0-21.3,8.7-21.3,20.4  c0,5.9,2.5,12.7,13.1,18.6c5.7,3.3,7.5,5.4,7.5,8.7c0,3.8-2.5,5.8-7,5.8c-4.4,0-9.1-1.9-11.6-3.4l-3.2,12.7c3,2.2,9.4,3.7,14.8,3.7  C157.4,166.6,166.9,159.5,166.9,146.2z"/></svg>