<?xml version="1.0" encoding="utf-8"?>
<!-- Generator: Adobe Illustrator 21.0.0, SVG Export Plug-In . SVG Version: 6.00 Build 0)  -->
<svg version="1.1" id="Camada_1" xmlns="http://www.w3.org/2000/svg" xmlns:xlink="http://www.w3.org/1999/xlink" x="0px" y="0px"
	 viewBox="0 0 800 800" style="enable-background:new 0 0 800 800;" xml:space="preserve">
<style type="text/css">
	.st0{fill:none;}
	.st1{fill:#D87093;}
	.st2{fill:#0077FF;}
</style>
<g>
	<path class="st0" d="M387.5,748.2V412.5H51.8C58.2,594.7,205.3,741.8,387.5,748.2z"/>
	<path class="st0" d="M51.8,387.5h335.7V51.8C205.3,58.2,58.2,205.3,51.8,387.5z"/>
	<path class="st0" d="M412.5,748.2c186.4-6.6,336-160.3,336-348.2c0-140.7-83.8-266.8-213.5-321.4C496,62.3,454.9,53.2,412.5,51.8
		v335.7v25V748.2z"/>
	<path class="st1" d="M51.8,412.5h335.7h25v-25h-25H51.8C58.2,205.3,205.3,58.2,387.5,51.8v-25c-46,1.5-90.6,11.3-132.9,29.1
		c-44.5,18.8-84.4,45.7-118.7,80s-61.2,74.2-80,118.7c-19.5,46.1-29.4,95-29.4,145.4s9.9,99.3,29.4,145.4
		c18.8,44.5,45.7,84.4,80,118.7c34.3,34.3,74.2,61.2,118.7,80c42.2,17.9,86.9,27.6,132.9,29.1v-25
		C205.3,741.8,58.2,594.7,51.8,412.5z"/>
	<path class="st2" d="M709.5,190.9c-40.9-60.3-97.8-107.1-164.8-135.3C498.8,36.3,450.1,26.5,400,26.5h-12.5v0.2v25v335.7h25V51.8
		C454.9,53.2,496,62.3,535,78.6C664.7,133.2,748.5,259.3,748.5,400c0,188-149.6,341.6-336,348.2V412.5h-25v335.7v25v0.2H400
		c50.4,0,99.3-9.9,145.4-29.4c44.5-18.8,84.4-45.7,118.7-80c34.3-34.3,61.2-74.2,80-118.7c19.5-46.1,29.4-95,29.4-145.4
		C773.5,325,751.3,252.7,709.5,190.9z"/>
</g>
</svg>
